<svg width="36" height="36" viewBox="0 0 36 36" fill="none" xmlns="http://www.w3.org/2000/svg">
<path d="M5.01078 0.0773126C2.96777 0.414681 1.26168 1.72198 0.501821 3.53534C0.100387 4.49121 0.0788818 4.75127 0.0788818 8.33581V11.6041H2.3011V8.49043C2.3011 4.98321 2.32261 4.79344 2.8029 4.01328C3.26168 3.2542 3.90684 2.713 4.75272 2.37563C5.11831 2.22804 5.24017 2.22101 8.34411 2.19992L11.5484 2.17884V0.0070276L8.45164 0.0140561C6.74555 0.0210846 5.19716 0.0491986 5.01078 0.0773126Z" fill="white"/>
<path d="M24.5233 2.18587H27.3047C28.8316 2.18587 30.3083 2.22101 30.5807 2.25615C31.2903 2.35455 32.1147 2.76923 32.6452 3.28934C33.1541 3.78836 33.5914 4.6107 33.6989 5.27841C33.7348 5.53143 33.7706 7.05662 33.7706 8.70129V11.6743H36L35.9713 8.20929C35.9427 4.35064 35.957 4.45607 35.4122 3.31043C34.6954 1.80633 33.4337 0.737993 31.7993 0.238969L31.1541 0.0491995L27.8423 0.0210855L24.5233 0V2.18587Z" fill="white"/>
<path d="M0.0215054 27.7485L0.0501792 31.1784L0.243728 31.7969C0.810036 33.5892 1.96416 34.8262 3.7276 35.5291C4.65233 35.8945 4.97491 35.9227 8.35842 35.9227H11.4767V33.7438H8.5448C6.90323 33.7438 5.44803 33.7157 5.23297 33.6735C4.01434 33.4557 2.90323 32.4857 2.42294 31.2276C2.27957 30.8411 2.2724 30.6864 2.24373 27.5728L2.22222 24.3256H0L0.0215054 27.7485Z" fill="white"/>
<path d="M33.6989 27.4744C33.6989 30.0328 33.6774 30.6935 33.5914 31.0238C33.2688 32.2468 32.3011 33.2378 31.0394 33.6455C30.7025 33.7579 30.2796 33.772 27.5914 33.8001L24.5233 33.8282V36L27.8064 35.9789C30.9247 35.9508 31.1039 35.9438 31.5986 35.7962C33.4624 35.2409 34.8172 34.0882 35.4982 32.4647C35.8996 31.5088 35.9211 31.2487 35.9211 27.6291V24.3257H33.6989V27.4744Z" fill="white"/>
<path d="M18 5C18.5523 5 19 5.44772 19 6V9C19 9.55228 18.5523 10 18 10C17.4477 10 17 9.55228 17 9V6C17 5.44772 17.4477 5 18 5Z" fill="white"/>
<path d="M12 18C12 14.6863 14.6863 12 18 12C21.3137 12 24 14.6863 24 18C24 21.3137 21.3137 24 18 24C14.6863 24 12 21.3137 12 18Z" fill="white"/>
<path d="M27.1925 10.2218C27.583 9.83126 27.583 9.19809 27.1925 8.80757C26.8019 8.41705 26.1688 8.41705 25.7782 8.80757L23.6569 10.9289C23.2664 11.3194 23.2664 11.9526 23.6569 12.3431C24.0474 12.7336 24.6806 12.7336 25.0711 12.3431L27.1925 10.2218Z" fill="white"/>
<path d="M31 18C31 18.5523 30.5523 19 30 19H27C26.4477 19 26 18.5523 26 18C26 17.4477 26.4477 17 27 17H30C30.5523 17 31 17.4477 31 18Z" fill="white"/>
<path d="M25.7781 27.1923C26.1686 27.5829 26.8018 27.5829 27.1923 27.1923C27.5828 26.8018 27.5828 26.1686 27.1923 25.7781L25.071 23.6568C24.6805 23.2663 24.0473 23.2663 23.6568 23.6568C23.2662 24.0473 23.2662 24.6805 23.6568 25.071L25.7781 27.1923Z" fill="white"/>
<path d="M18 26C18.5523 26 19 26.4477 19 27V30C19 30.5523 18.5523 31 18 31C17.4477 31 17 30.5523 17 30V27C17 26.4477 17.4477 26 18 26Z" fill="white"/>
<path d="M12.3433 25.071C12.7339 24.6805 12.7339 24.0473 12.3433 23.6568C11.9528 23.2663 11.3196 23.2663 10.9291 23.6568L8.8078 25.7781C8.41728 26.1687 8.41728 26.8018 8.8078 27.1923C9.19833 27.5829 9.83149 27.5829 10.222 27.1923L12.3433 25.071Z" fill="white"/>
<path d="M10 18C10 18.5523 9.55228 19 9 19H6C5.44772 19 5 18.5523 5 18C5 17.4477 5.44772 17 6 17H9C9.55228 17 10 17.4477 10 18Z" fill="white"/>
<path d="M10.929 12.3431C11.3195 12.7336 11.9527 12.7336 12.3432 12.3431C12.7337 11.9526 12.7337 11.3194 12.3432 10.9289L10.2219 8.80756C9.83134 8.41703 9.19818 8.41703 8.80765 8.80756C8.41713 9.19808 8.41713 9.83125 8.80765 10.2218L10.929 12.3431Z" fill="white"/>
</svg>
